<svg id="visual" viewBox="0 0 900 600" width="900" height="600" xmlns="http://www.w3.org/2000/svg" xmlns:xlink="http://www.w3.org/1999/xlink" version="1.1"><rect width="900" height="600" fill="#931F1F"></rect><g><g transform="translate(160 482)"><path d="M101.8 -36.4C112.7 0.3 88.9 45 54.1 69.1C19.2 93.1 -26.7 96.6 -55.1 75.9C-83.5 55.3 -94.4 10.5 -82.3 -27.9C-70.2 -66.4 -35.1 -98.6 5.2 -100.3C45.5 -102 90.9 -73.1 101.8 -36.4Z" stroke="#F7760E" fill="none" stroke-width="20"></path></g><g transform="translate(673 487)"><path d="M49.1 -15.8C55.1 2.5 45.5 26 28 38.8C10.5 51.6 -15.1 53.7 -30.6 42.4C-46.1 31 -51.6 6.2 -44.9 -13.2C-38.1 -32.5 -19.1 -46.5 1.2 -46.9C21.5 -47.3 43.1 -34.2 49.1 -15.8Z" stroke="#F7760E" fill="none" stroke-width="20"></path></g><g transform="translate(323 208)"><path d="M60.5 -19.7C69.8 8.9 62.7 42.8 40.2 60.3C17.7 77.9 -20.3 79 -44.8 61.3C-69.3 43.6 -80.4 6.9 -70.7 -22.3C-61 -51.5 -30.5 -73.3 -2.4 -72.5C25.6 -71.7 51.2 -48.3 60.5 -19.7Z" stroke="#F7760E" fill="none" stroke-width="20"></path></g></g></svg>